<?xml version="1.0" encoding="UTF-8"?>
<svg version="1.1" xmlns="http://www.w3.org/2000/svg" width="1024" height="1024">
<path d="M0 0 C0.86625 0.474375 1.7325 0.94875 2.625 1.4375 C2.625 2.0975 2.625 2.7575 2.625 3.4375 C3.800625 3.6540625 3.800625 3.6540625 5 3.875 C7.625 4.4375 7.625 4.4375 9.625 5.4375 C9.625 6.0975 9.625 6.7575 9.625 7.4375 C10.8315625 7.7778125 10.8315625 7.7778125 12.0625 8.125 C15.73984502 9.47981132 18.90990651 11.18879625 22.30078125 13.12890625 C25.67971364 15.03133037 29.14461092 16.72894536 32.625 18.4375 C32.625 19.0975 32.625 19.7575 32.625 20.4375 C33.8315625 20.746875 33.8315625 20.746875 35.0625 21.0625 C38.96945864 22.57044895 41.9448239 24.60020419 45.3671875 26.97265625 C48.34087376 28.90195097 51.32093925 30.17211503 54.625 31.4375 C54.625 32.0975 54.625 32.7575 54.625 33.4375 C55.6975 33.705625 56.77 33.97375 57.875 34.25 C61.29346746 35.3325147 62.91118149 36.2664452 65.625 38.4375 C67.27297236 39.14912443 68.93665408 39.82781953 70.625 40.4375 C70.625 41.0975 70.625 41.7575 70.625 42.4375 C71.50728271 42.70771973 72.38956543 42.97793945 73.29858398 43.25634766 C76.42265329 44.36565021 79.00335301 45.65044424 81.84765625 47.3359375 C82.79833984 47.89796875 83.74902344 48.46 84.72851562 49.0390625 C85.70498047 49.62429687 86.68144531 50.20953125 87.6875 50.8125 C89.15799805 51.67875 89.15799805 51.67875 90.65820312 52.5625 C100.27395753 58.28103419 100.27395753 58.28103419 103.625 61.4375 C103.625 62.0975 103.625 62.7575 103.625 63.4375 C104.615 63.7675 105.605 64.0975 106.625 64.4375 C108.01171875 65.99609375 108.01171875 65.99609375 109.3125 67.875 C109.74949219 68.49246094 110.18648437 69.10992187 110.63671875 69.74609375 C111.625 71.4375 111.625 71.4375 111.625 73.4375 C112.285 73.4375 112.945 73.4375 113.625 73.4375 C116.57419341 83.66165248 117.03986451 93.23933388 116.96557617 103.79418945 C116.96472805 105.50051865 116.96520865 107.20684893 116.96690369 108.91317749 C116.96775785 113.50533453 116.95022686 118.09725232 116.92918181 122.68935418 C116.91031753 127.50327326 116.90865694 132.31719895 116.90510559 137.13114929 C116.8958136 146.22913075 116.87123868 155.32700294 116.84105712 164.42493647 C116.80742409 174.79020062 116.7910048 185.15547023 116.77597082 195.52077544 C116.74468634 216.82641107 116.69198169 238.13194863 116.625 259.4375 C113.655 258.4475 110.685 257.4575 107.625 256.4375 C107.625 255.7775 107.625 255.1175 107.625 254.4375 C105.315 253.7775 103.005 253.1175 100.625 252.4375 C100.625 251.7775 100.625 251.1175 100.625 250.4375 C98.315 249.7775 96.005 249.1175 93.625 248.4375 C93.625 247.7775 93.625 247.1175 93.625 246.4375 C92.74956543 246.17179199 91.87413086 245.90608398 90.97216797 245.63232422 C87.7174845 244.4705138 85.03254034 243.08710121 82.0703125 241.3203125 C81.04292969 240.71316406 80.01554687 240.10601562 78.95703125 239.48046875 C77.89871094 238.84753906 76.84039063 238.21460938 75.75 237.5625 C69.13539947 233.62620398 62.56852959 229.76704792 55.625 226.4375 C55.625 225.7775 55.625 225.1175 55.625 224.4375 C53.315 223.7775 51.005 223.1175 48.625 222.4375 C48.625 221.7775 48.625 221.1175 48.625 220.4375 C47.696875 220.128125 46.76875 219.81875 45.8125 219.5 C43.75 218.8125 41.6875 218.125 39.625 217.4375 C39.625 216.7775 39.625 216.1175 39.625 215.4375 C38.655625 215.128125 37.68625 214.81875 36.6875 214.5 C33.625 213.4375 33.625 213.4375 32.625 212.4375 C32.5297178 209.45451786 32.49947825 206.49473655 32.51147461 203.51147461 C32.51132858 202.57498581 32.51118256 201.63849701 32.5110321 200.67362976 C32.51173163 197.56234461 32.51952585 194.45111851 32.52734375 191.33984375 C32.52920779 189.18892957 32.53063176 187.03801497 32.53163147 184.88710022 C32.53545775 179.21368242 32.54528898 173.54029005 32.55633545 167.86688232 C32.5665472 162.08248234 32.57112858 156.29807827 32.57617188 150.51367188 C32.58691115 139.15493672 32.60398889 127.79622047 32.625 116.4375 C30.315 115.7775 28.005 115.1175 25.625 114.4375 C25.625 113.7775 25.625 113.1175 25.625 112.4375 C24.635 112.210625 23.645 111.98375 22.625 111.75 C18.16190864 110.48393939 14.3081757 108.24030687 10.625 105.4375 C10.295 104.7775 9.965 104.1175 9.625 103.4375 C8.3875 103.06625 8.3875 103.06625 7.125 102.6875 C3.10505225 101.25180438 0.24692423 99.15151363 -3.12890625 96.58203125 C-5.31055515 95.23860542 -5.31055515 95.23860542 -7.765625 95.5390625 C-10.99045077 96.6494067 -13.65829738 98.21418596 -16.5625 100 C-22.17178068 103.4375 -22.17178068 103.4375 -24.375 103.4375 C-24.705 104.0975 -25.035 104.7575 -25.375 105.4375 C-27.10975997 106.51849919 -28.88827309 107.53008562 -30.6875 108.5 C-31.65300781 109.02722656 -32.61851562 109.55445313 -33.61328125 110.09765625 C-35.92001681 111.21676558 -37.87450786 111.95640769 -40.375 112.4375 C-40.375 113.0975 -40.375 113.7575 -40.375 114.4375 C-43.84 115.4275 -43.84 115.4275 -47.375 116.4375 C-47.375 163.2975 -47.375 210.1575 -47.375 258.4375 C-45.725 258.7675 -44.075 259.0975 -42.375 259.4375 C-42.375 260.0975 -42.375 260.7575 -42.375 261.4375 C-39.405 262.4275 -36.435 263.4175 -33.375 264.4375 C-33.375 265.0975 -33.375 265.7575 -33.375 266.4375 C-32.60671875 266.64246094 -31.8384375 266.84742188 -31.046875 267.05859375 C-25.90989367 268.98769418 -21.35285878 271.73507575 -16.625 274.5 C-14.7345445 275.59534467 -12.84392761 276.69041087 -10.953125 277.78515625 C-10.12200195 278.26992432 -9.29087891 278.75469238 -8.43457031 279.25415039 C-7.10232775 280.01960555 -5.74927562 280.75036219 -4.375 281.4375 C-4.375 282.0975 -4.375 282.7575 -4.375 283.4375 C-3.3025 283.705625 -2.23 283.97375 -1.125 284.25 C2.29346746 285.3325147 3.91118149 286.2664452 6.625 288.4375 C8.27297236 289.14912443 9.93665408 289.82781953 11.625 290.4375 C11.625 291.0975 11.625 291.7575 11.625 292.4375 C13.935 293.0975 16.245 293.7575 18.625 294.4375 C18.625 295.0975 18.625 295.7575 18.625 296.4375 C19.49914551 296.70481934 20.37329102 296.97213867 21.27392578 297.24755859 C24.51536081 298.39856794 27.26267696 299.76920253 30.2421875 301.4765625 C31.76972656 302.34667969 31.76972656 302.34667969 33.328125 303.234375 C34.37484375 303.83765625 35.4215625 304.4409375 36.5 305.0625 C37.56992187 305.67351562 38.63984375 306.28453125 39.7421875 306.9140625 C42.37255755 308.4171311 45.00000926 309.92506286 47.625 311.4375 C47.625 312.0975 47.625 312.7575 47.625 313.4375 C48.6975 313.705625 49.77 313.97375 50.875 314.25 C54.29346746 315.3325147 55.91118149 316.2664452 58.625 318.4375 C60.27297236 319.14912443 61.93665408 319.82781953 63.625 320.4375 C63.625 321.0975 63.625 321.7575 63.625 322.4375 C65.935 323.0975 68.245 323.7575 70.625 324.4375 C70.625 325.0975 70.625 325.7575 70.625 326.4375 C71.8315625 326.7778125 71.8315625 326.7778125 73.0625 327.125 C77.53785739 328.77381588 81.51221318 331.04294412 85.625 333.4375 C85.625 334.0975 85.625 334.7575 85.625 335.4375 C86.305625 335.52 86.98625 335.6025 87.6875 335.6875 C90.87450611 336.50120369 93.17961782 337.76983057 95.9765625 339.44921875 C97.81232107 340.54980387 99.69588095 341.51152286 101.625 342.4375 C101.625 343.0975 101.625 343.7575 101.625 344.4375 C103.935 345.0975 106.245 345.7575 108.625 346.4375 C108.625 347.0975 108.625 347.7575 108.625 348.4375 C110.935 349.0975 113.245 349.7575 115.625 350.4375 C115.625 351.0975 115.625 351.7575 115.625 352.4375 C117.935 353.0975 120.245 353.7575 122.625 354.4375 C122.625 355.0975 122.625 355.7575 122.625 356.4375 C123.553125 356.746875 124.48125 357.05625 125.4375 357.375 C127.5 358.0625 129.5625 358.75 131.625 359.4375 C131.625 360.0975 131.625 360.7575 131.625 361.4375 C133.605 362.0975 135.585 362.7575 137.625 363.4375 C137.625 364.0975 137.625 364.7575 137.625 365.4375 C138.32625 365.52 139.0275 365.6025 139.75 365.6875 C143.28977388 366.61091927 145.62211174 368.37301432 148.625 370.4375 C150.27119113 371.15323527 151.93228055 371.8400696 153.625 372.4375 C153.625 373.0975 153.625 373.7575 153.625 374.4375 C155.935 375.0975 158.245 375.7575 160.625 376.4375 C160.625 377.0975 160.625 377.7575 160.625 378.4375 C162.935 379.0975 165.245 379.7575 167.625 380.4375 C167.625 381.0975 167.625 381.7575 167.625 382.4375 C168.44226563 382.67210937 169.25953125 382.90671875 170.1015625 383.1484375 C174.35571995 384.70483657 178.08873396 386.79919958 182 389.0625 C182.73605469 389.48273438 183.47210937 389.90296875 184.23046875 390.3359375 C186.0313765 391.36502764 187.82857318 392.40060756 189.625 393.4375 C189.625 394.0975 189.625 394.7575 189.625 395.4375 C191.605 396.0975 193.585 396.7575 195.625 397.4375 C195.955 304.3775 196.285 211.3175 196.625 115.4375 C198.935 116.0975 201.245 116.7575 203.625 117.4375 C203.625 118.0975 203.625 118.7575 203.625 119.4375 C205.935 120.0975 208.245 120.7575 210.625 121.4375 C210.625 122.0975 210.625 122.7575 210.625 123.4375 C211.40875 123.64375 212.1925 123.85 213 124.0625 C216.91316689 125.54680468 220.15915822 127.467238 223.7109375 129.65625 C231.81031202 134.6070741 240.06527424 139.32883164 248.625 143.4375 C248.625 144.0975 248.625 144.7575 248.625 145.4375 C249.553125 145.6025 250.48125 145.7675 251.4375 145.9375 C260.09569329 148.37592995 268.22960893 155.85260016 273.375 163.0625 C274.01695312 163.94808594 274.01695312 163.94808594 274.671875 164.8515625 C275.625 166.4375 275.625 166.4375 275.625 168.4375 C276.285 168.4375 276.945 168.4375 277.625 168.4375 C279.07684478 172.97451494 279.86009196 176.61811476 279.625 181.4375 C280.285 181.4375 280.945 181.4375 281.625 181.4375 C281.625 279.1175 281.625 376.7975 281.625 477.4375 C280.965 477.4375 280.305 477.4375 279.625 477.4375 C279.63402344 478.03175781 279.64304687 478.62601563 279.65234375 479.23828125 C279.28719389 489.44660116 274.04375452 496.43482417 266.8125 503.3125 C255.81818747 512.6643695 245.73464145 514.05659651 231.625 513.4375 C228.23117796 512.96153715 224.93802889 512.31058056 221.625 511.4375 C221.625 510.7775 221.625 510.1175 221.625 509.4375 C218.655 508.4475 215.685 507.4575 212.625 506.4375 C212.625 505.7775 212.625 505.1175 212.625 504.4375 C210.315 503.7775 208.005 503.1175 205.625 502.4375 C205.625 501.7775 205.625 501.1175 205.625 500.4375 C203.315 499.7775 201.005 499.1175 198.625 498.4375 C198.625 497.7775 198.625 497.1175 198.625 496.4375 C197.1709375 496.128125 197.1709375 496.128125 195.6875 495.8125 C191.57585973 494.64010458 188.48375199 492.50262808 185 490.078125 C177.28895321 484.75141505 169.04588722 480.5177237 160.625 476.4375 C160.625 475.7775 160.625 475.1175 160.625 474.4375 C159.75085449 474.17018066 158.87670898 473.90286133 157.97607422 473.62744141 C154.73463919 472.47643206 151.98732304 471.10579747 149.0078125 469.3984375 C147.48027344 468.52832031 147.48027344 468.52832031 145.921875 467.640625 C144.87515625 467.03734375 143.8284375 466.4340625 142.75 465.8125 C141.68007813 465.20148438 140.61015625 464.59046875 139.5078125 463.9609375 C136.87744245 462.4578689 134.24999074 460.94993714 131.625 459.4375 C131.625 458.7775 131.625 458.1175 131.625 457.4375 C130.5525 457.169375 129.48 456.90125 128.375 456.625 C124.99792962 455.55559438 123.28747018 454.62452907 120.625 452.4375 C119.635 452.1075 118.645 451.7775 117.625 451.4375 C117.62141747 452.35631014 117.62141747 452.35631014 117.61776257 453.2936821 C117.55845395 468.24426116 117.48280352 483.19467639 117.38928509 498.14507675 C117.34444716 505.37518601 117.30500536 512.60524734 117.27856445 519.83544922 C117.25548657 526.14220799 117.22198076 532.44881351 117.17629844 538.75545049 C117.15249682 542.09037464 117.13523958 545.42501016 117.12738609 548.76003265 C117.11770116 552.49617265 117.08958808 556.23176879 117.05737305 559.96777344 C117.05880814 561.05606949 117.06024323 562.14436554 117.0617218 563.26564026 C116.94295507 573.0658987 115.73518123 582.79569821 109.5625 590.6875 C108.87027344 591.60015625 108.17804688 592.5128125 107.46484375 593.453125 C106.85769531 594.10796875 106.25054688 594.7628125 105.625 595.4375 C104.965 595.4375 104.305 595.4375 103.625 595.4375 C103.295 596.4275 102.965 597.4175 102.625 598.4375 C99.4198982 601.46454059 97.02142348 602.9350516 92.625 603.4375 C92.625 604.0975 92.625 604.7575 92.625 605.4375 C89.3371022 607.27765498 86.04408674 609.10845047 82.75 610.9375 C81.34427734 611.72447266 81.34427734 611.72447266 79.91015625 612.52734375 C79.01425781 613.02363281 78.11835937 613.51992188 77.1953125 614.03125 C75.95418701 614.72250977 75.95418701 614.72250977 74.68798828 615.42773438 C72.625 616.4375 72.625 616.4375 70.625 616.4375 C70.625 617.0975 70.625 617.7575 70.625 618.4375 C68.68280718 619.40859641 66.74044495 620.37931732 64.796875 621.34765625 C62.94031568 622.27927505 61.0940365 623.23133293 59.25 624.1875 C56.625 625.4375 56.625 625.4375 54.625 625.4375 C54.625 626.0975 54.625 626.7575 54.625 627.4375 C53.5525 627.953125 52.48 628.46875 51.375 629 C46.48597551 631.42698886 41.83709832 634.23122304 37.1640625 637.046875 C34.625 638.4375 34.625 638.4375 32.625 638.4375 C32.625 639.0975 32.625 639.7575 32.625 640.4375 C30.68280718 641.40859641 28.74044495 642.37931732 26.796875 643.34765625 C24.94031568 644.27927505 23.0940365 645.23133293 21.25 646.1875 C18.625 647.4375 18.625 647.4375 16.625 647.4375 C16.625 648.0975 16.625 648.7575 16.625 649.4375 C14.315 650.0975 12.005 650.7575 9.625 651.4375 C9.625 652.0975 9.625 652.7575 9.625 653.4375 C7.26008245 654.81252203 4.88571484 656.16194458 2.5 657.5 C1.83484375 657.88994141 1.1696875 658.27988281 0.484375 658.68164062 C-2.87007787 660.53974442 -4.74731348 661.46738983 -8.65625 661.28125 C-11.76950603 660.31506709 -14.51896328 659.00152011 -17.375 657.4375 C-17.375 656.7775 -17.375 656.1175 -17.375 655.4375 C-18.15875 655.293125 -18.9425 655.14875 -19.75 655 C-22.375 654.4375 -22.375 654.4375 -24.375 653.4375 C-24.375 652.7775 -24.375 652.1175 -24.375 651.4375 C-25.179375 651.210625 -25.98375 650.98375 -26.8125 650.75 C-30.48984502 649.39518868 -33.65990651 647.68620375 -37.05078125 645.74609375 C-40.42971364 643.84366963 -43.89461092 642.14605464 -47.375 640.4375 C-47.375 639.7775 -47.375 639.1175 -47.375 638.4375 C-48.179375 638.23125 -48.98375 638.025 -49.8125 637.8125 C-53.71945864 636.30455105 -56.6948239 634.27479581 -60.1171875 631.90234375 C-63.09087376 629.97304903 -66.07093925 628.70288497 -69.375 627.4375 C-69.375 626.7775 -69.375 626.1175 -69.375 625.4375 C-70.4475 625.169375 -71.52 624.90125 -72.625 624.625 C-76.04346746 623.5424853 -77.66118149 622.6085548 -80.375 620.4375 C-82.02297236 619.72587557 -83.68665408 619.04718047 -85.375 618.4375 C-85.375 617.7775 -85.375 617.1175 -85.375 616.4375 C-86.25728271 616.16728027 -87.13956543 615.89706055 -88.04858398 615.61865234 C-91.17265329 614.50934979 -93.75335301 613.22455576 -96.59765625 611.5390625 C-98.02368164 610.69601562 -98.02368164 610.69601562 -99.47851562 609.8359375 C-100.94321289 608.95808594 -100.94321289 608.95808594 -102.4375 608.0625 C-103.90799805 607.19625 -103.90799805 607.19625 -105.40820312 606.3125 C-115.02395753 600.59396581 -115.02395753 600.59396581 -118.375 597.4375 C-118.375 596.7775 -118.375 596.1175 -118.375 595.4375 C-119.365 595.1075 -120.355 594.7775 -121.375 594.4375 C-123.09375 592.57421875 -123.09375 592.57421875 -124.875 590.125 C-125.4628125 589.34511719 -126.050625 588.56523438 -126.65625 587.76171875 C-131.9626749 577.49861059 -131.7945803 566.44554473 -131.71557617 555.19433594 C-131.71472826 553.48815425 -131.71520823 551.78197146 -131.71690369 550.07579041 C-131.71775868 545.47944234 -131.70021393 540.88333277 -131.67918181 536.28703976 C-131.66033167 531.47044547 -131.65865804 526.65384473 -131.65510559 521.83721924 C-131.6458095 512.73212139 -131.62122892 503.62713257 -131.59105712 494.52208257 C-131.55743699 484.14958657 -131.54100802 473.77708516 -131.52597082 463.40454817 C-131.49467702 442.0821381 -131.44196425 420.75982594 -131.375 399.4375 C-126.92 400.9225 -126.92 400.9225 -122.375 402.4375 C-122.375 403.0975 -122.375 403.7575 -122.375 404.4375 C-120.065 405.0975 -117.755 405.7575 -115.375 406.4375 C-115.375 407.0975 -115.375 407.7575 -115.375 408.4375 C-113.065 409.0975 -110.755 409.7575 -108.375 410.4375 C-108.375 411.0975 -108.375 411.7575 -108.375 412.4375 C-107.49956543 412.70320801 -106.62413086 412.96891602 -105.72216797 413.24267578 C-102.4674845 414.4044862 -99.78254034 415.78789879 -96.8203125 417.5546875 C-95.79292969 418.16183594 -94.76554688 418.76898437 -93.70703125 419.39453125 C-92.64871094 420.02746094 -91.59039062 420.66039062 -90.5 421.3125 C-83.88539947 425.24879602 -77.31852959 429.10795208 -70.375 432.4375 C-70.375 433.0975 -70.375 433.7575 -70.375 434.4375 C-68.065 435.0975 -65.755 435.7575 -63.375 436.4375 C-63.375 437.0975 -63.375 437.7575 -63.375 438.4375 C-62.446875 438.746875 -61.51875 439.05625 -60.5625 439.375 C-58.5 440.0625 -56.4375 440.75 -54.375 441.4375 C-54.375 442.0975 -54.375 442.7575 -54.375 443.4375 C-53.405625 443.746875 -52.43625 444.05625 -51.4375 444.375 C-48.375 445.4375 -48.375 445.4375 -47.375 446.4375 C-47.2797178 449.42048214 -47.24947825 452.38026345 -47.26147461 455.36352539 C-47.26132858 456.30001419 -47.26118256 457.23650299 -47.2610321 458.20137024 C-47.26173163 461.31265539 -47.26952585 464.42388149 -47.27734375 467.53515625 C-47.27920779 469.68607043 -47.28063176 471.83698503 -47.28163147 473.98789978 C-47.28545775 479.66131758 -47.29528898 485.33470995 -47.30633545 491.00811768 C-47.3165472 496.79251766 -47.32112858 502.57692173 -47.32617188 508.36132812 C-47.33691115 519.72006328 -47.35398889 531.07877953 -47.375 542.4375 C-45.065 543.0975 -42.755 543.7575 -40.375 544.4375 C-40.375 545.0975 -40.375 545.7575 -40.375 546.4375 C-39.385 546.664375 -38.395 546.89125 -37.375 547.125 C-32.91190864 548.39106061 -29.0581757 550.63469313 -25.375 553.4375 C-25.045 554.0975 -24.715 554.7575 -24.375 555.4375 C-23.55 555.685 -22.725 555.9325 -21.875 556.1875 C-17.85505225 557.62319562 -14.99692423 559.72348637 -11.62109375 562.29296875 C-9.43944485 563.63639458 -9.43944485 563.63639458 -6.984375 563.3359375 C-3.75954923 562.2255933 -1.09170262 560.66081404 1.8125 558.875 C7.42178068 555.4375 7.42178068 555.4375 9.625 555.4375 C9.955 554.7775 10.285 554.1175 10.625 553.4375 C12.35975997 552.35650081 14.13827309 551.34491438 15.9375 550.375 C16.90300781 549.84777344 17.86851562 549.32054687 18.86328125 548.77734375 C21.17001681 547.65823442 23.12450786 546.91859231 25.625 546.4375 C25.625 545.7775 25.625 545.1175 25.625 544.4375 C27.935 543.7775 30.245 543.1175 32.625 542.4375 C32.625 495.5775 32.625 448.7175 32.625 400.4375 C30.975 400.1075 29.325 399.7775 27.625 399.4375 C26.27164105 398.46477325 24.93837396 397.4635734 23.625 396.4375 C21.97702764 395.72587557 20.31334592 395.04718047 18.625 394.4375 C18.625 393.7775 18.625 393.1175 18.625 392.4375 C17.4184375 392.0971875 17.4184375 392.0971875 16.1875 391.75 C11.6921184 390.09380678 7.76460614 387.8309882 3.625 385.4375 C2.39494593 384.73495054 1.164446 384.03318136 -0.06640625 383.33203125 C-3.5054773 381.37217719 -6.9409315 379.40610541 -10.375 377.4375 C-10.375 376.7775 -10.375 376.1175 -10.375 375.4375 C-11.07625 375.355 -11.7775 375.2725 -12.5 375.1875 C-16.03977388 374.26408073 -18.37211174 372.50198568 -21.375 370.4375 C-23.02119113 369.72176473 -24.68228055 369.0349304 -26.375 368.4375 C-26.375 367.7775 -26.375 367.1175 -26.375 366.4375 C-28.685 365.7775 -30.995 365.1175 -33.375 364.4375 C-33.375 363.7775 -33.375 363.1175 -33.375 362.4375 C-34.24914551 362.17018066 -35.12329102 361.90286133 -36.02392578 361.62744141 C-39.26536081 360.47643206 -42.01267696 359.10579747 -44.9921875 357.3984375 C-46.01054687 356.81835938 -47.02890625 356.23828125 -48.078125 355.640625 C-49.64820313 354.73570312 -49.64820313 354.73570312 -51.25 353.8125 C-52.31992187 353.20148438 -53.38984375 352.59046875 -54.4921875 351.9609375 C-57.12255755 350.4578689 -59.75000926 348.94993714 -62.375 347.4375 C-62.375 346.7775 -62.375 346.1175 -62.375 345.4375 C-63.98375 345.0353125 -63.98375 345.0353125 -65.625 344.625 C-69.04346746 343.5424853 -70.66118149 342.6085548 -73.375 340.4375 C-75.02297236 339.72587557 -76.68665408 339.04718047 -78.375 338.4375 C-78.375 337.7775 -78.375 337.1175 -78.375 336.4375 C-80.685 335.7775 -82.995 335.1175 -85.375 334.4375 C-85.375 333.7775 -85.375 333.1175 -85.375 332.4375 C-86.5815625 332.128125 -86.5815625 332.128125 -87.8125 331.8125 C-91.70242477 330.31112553 -94.66933502 328.30828554 -98.08203125 325.953125 C-101.3672575 323.78162963 -104.82257154 322.11986338 -108.375 320.4375 C-109.87654214 319.69059224 -111.37658338 318.94065844 -112.875 318.1875 C-114.03 317.61 -115.185 317.0325 -116.375 316.4375 C-116.375 315.7775 -116.375 315.1175 -116.375 314.4375 C-117.1175 314.334375 -117.86 314.23125 -118.625 314.125 C-121.60508479 313.3799788 -122.98379792 312.30562663 -125.375 310.4375 C-127.02297236 309.72587557 -128.68665408 309.04718047 -130.375 308.4375 C-130.375 307.7775 -130.375 307.1175 -130.375 306.4375 C-132.685 305.7775 -134.995 305.1175 -137.375 304.4375 C-137.375 303.7775 -137.375 303.1175 -137.375 302.4375 C-141.83 300.9525 -141.83 300.9525 -146.375 299.4375 C-146.375 298.7775 -146.375 298.1175 -146.375 297.4375 C-147.5815625 297.128125 -147.5815625 297.128125 -148.8125 296.8125 C-152.71945864 295.30455105 -155.6948239 293.27479581 -159.1171875 290.90234375 C-162.09087376 288.97304903 -165.07093925 287.70288497 -168.375 286.4375 C-168.375 285.7775 -168.375 285.1175 -168.375 284.4375 C-170.685 283.7775 -172.995 283.1175 -175.375 282.4375 C-175.375 281.7775 -175.375 281.1175 -175.375 280.4375 C-176.24914551 280.17018066 -177.12329102 279.90286133 -178.02392578 279.62744141 C-181.26536081 278.47643206 -184.01267696 277.10579747 -186.9921875 275.3984375 C-188.01054687 274.81835938 -189.02890625 274.23828125 -190.078125 273.640625 C-191.64820313 272.73570312 -191.64820313 272.73570312 -193.25 271.8125 C-194.31992187 271.20148438 -195.38984375 270.59046875 -196.4921875 269.9609375 C-199.12255755 268.4578689 -201.75000926 266.94993714 -204.375 265.4375 C-204.375 264.7775 -204.375 264.1175 -204.375 263.4375 C-206.355 262.7775 -208.335 262.1175 -210.375 261.4375 C-210.705 354.4975 -211.035 447.5575 -211.375 543.4375 C-213.685 542.7775 -215.995 542.1175 -218.375 541.4375 C-218.375 540.7775 -218.375 540.1175 -218.375 539.4375 C-219.179375 539.210625 -219.98375 538.98375 -220.8125 538.75 C-230.19666198 535.29267717 -238.74053144 529.28694216 -247.29101562 524.16601562 C-252.56251038 521.02953127 -257.84823945 518.09997947 -263.375 515.4375 C-263.375 514.7775 -263.375 514.1175 -263.375 513.4375 C-264.303125 513.2725 -265.23125 513.1075 -266.1875 512.9375 C-277.24959867 509.80586718 -285.53208207 499.93535913 -291.7265625 490.83984375 C-296.02952193 481.95861706 -296.81626824 472.73685958 -296.76268005 463.00320435 C-296.76806559 461.81043188 -296.77345113 460.61765941 -296.77899987 459.38874233 C-296.79074279 456.11351391 -296.78925033 452.83861685 -296.78183305 449.5633862 C-296.77707171 446.01726057 -296.78963725 442.47118766 -296.79985046 438.92507935 C-296.81698614 431.99172237 -296.81788939 425.05845622 -296.81263756 418.12508358 C-296.80858481 412.48570187 -296.81005249 406.84634685 -296.81538582 401.2069664 C-296.81613424 400.40222892 -296.81688266 399.59749144 -296.81765376 398.76836797 C-296.81918535 397.13318261 -296.8207237 395.49799726 -296.82226873 393.86281191 C-296.83597487 378.55214422 -296.83056939 363.24152772 -296.81908352 347.93086122 C-296.80915331 333.94746786 -296.82209149 319.96420686 -296.84601771 305.9808339 C-296.87044509 291.59531479 -296.88000764 277.20985724 -296.87336498 262.82431781 C-296.86988081 254.75888842 -296.87205162 246.69356075 -296.88961601 238.62814713 C-296.90438362 231.76229984 -296.90491424 224.89662593 -296.8875451 218.03078188 C-296.87906996 214.53324531 -296.87679907 211.03601786 -296.89219666 207.53849792 C-296.9619923 187.5148615 -296.89699242 171.68868475 -282.4296875 156.37890625 C-272.76747365 147.28390738 -262.78152378 145.15326313 -249.83984375 145.2890625 C-241.28064117 145.65574762 -234.85171089 148.34794206 -227.375 152.4375 C-227.375 153.0975 -227.375 153.7575 -227.375 154.4375 C-226.1375 154.80875 -226.1375 154.80875 -224.875 155.1875 C-220.85126529 156.62454811 -217.15520976 158.46104515 -213.375 160.4375 C-213.375 161.0975 -213.375 161.7575 -213.375 162.4375 C-212.570625 162.664375 -211.76625 162.89125 -210.9375 163.125 C-206.46214261 164.77381588 -202.48778682 167.04294412 -198.375 169.4375 C-198.375 170.0975 -198.375 170.7575 -198.375 171.4375 C-197.694375 171.52 -197.01375 171.6025 -196.3125 171.6875 C-191.38533392 172.94549985 -187.40966421 175.73392833 -183.25 178.5625 C-180.65771747 180.25311904 -178.28189719 181.41153629 -175.375 182.4375 C-175.375 183.0975 -175.375 183.7575 -175.375 184.4375 C-173.065 185.0975 -170.755 185.7575 -168.375 186.4375 C-168.375 187.0975 -168.375 187.7575 -168.375 188.4375 C-166.065 189.0975 -163.755 189.7575 -161.375 190.4375 C-161.375 191.0975 -161.375 191.7575 -161.375 192.4375 C-160.199375 192.7778125 -160.199375 192.7778125 -159 193.125 C-146.21710526 197.75328947 -146.21710526 197.75328947 -144.375 201.4375 C-142.4032696 202.49214649 -140.39737052 203.48355164 -138.375 204.4375 C-136.37353944 205.43457353 -134.37332028 206.43414758 -132.375 207.4375 C-132.37141747 206.51868986 -132.37141747 206.51868986 -132.36776257 205.5813179 C-132.30845395 190.63073884 -132.23280352 175.68032361 -132.13928509 160.72992325 C-132.09444716 153.49981399 -132.05500536 146.26975266 -132.02856445 139.03955078 C-132.00548657 132.73279201 -131.97198076 126.42618649 -131.92629844 120.11954951 C-131.90249682 116.78462536 -131.88523958 113.44998984 -131.87738609 110.11496735 C-131.86770116 106.37882735 -131.83958808 102.64323121 -131.80737305 98.90722656 C-131.80880814 97.81893051 -131.81024323 96.73063446 -131.8117218 95.60935974 C-131.69295507 85.8091013 -130.48518123 76.07930179 -124.3125 68.1875 C-123.62027344 67.27484375 -122.92804688 66.3621875 -122.21484375 65.421875 C-121.30412109 64.43960938 -121.30412109 64.43960938 -120.375 63.4375 C-119.715 63.4375 -119.055 63.4375 -118.375 63.4375 C-118.045 62.4475 -117.715 61.4575 -117.375 60.4375 C-114.1698982 57.41045941 -111.77142348 55.9399484 -107.375 55.4375 C-107.375 54.7775 -107.375 54.1175 -107.375 53.4375 C-104.0871022 51.59734502 -100.79408674 49.76654953 -97.5 47.9375 C-96.56285156 47.41285156 -95.62570312 46.88820312 -94.66015625 46.34765625 C-93.31630859 45.60322266 -93.31630859 45.60322266 -91.9453125 44.84375 C-91.11789551 44.38291016 -90.29047852 43.92207031 -89.43798828 43.44726562 C-87.375 42.4375 -87.375 42.4375 -85.375 42.4375 C-85.375 41.7775 -85.375 41.1175 -85.375 40.4375 C-83.43280718 39.46640359 -81.49044495 38.49568268 -79.546875 37.52734375 C-77.69031568 36.59572495 -75.8440365 35.64366707 -74 34.6875 C-71.375 33.4375 -71.375 33.4375 -69.375 33.4375 C-69.375 32.7775 -69.375 32.1175 -69.375 31.4375 C-68.3025 30.921875 -67.23 30.40625 -66.125 29.875 C-61.23597551 27.44801114 -56.58709832 24.64377696 -51.9140625 21.828125 C-49.375 20.4375 -49.375 20.4375 -47.375 20.4375 C-47.375 19.7775 -47.375 19.1175 -47.375 18.4375 C-45.43280718 17.46640359 -43.49044495 16.49568268 -41.546875 15.52734375 C-39.69031568 14.59572495 -37.8440365 13.64366707 -36 12.6875 C-33.375 11.4375 -33.375 11.4375 -31.375 11.4375 C-31.375 10.7775 -31.375 10.1175 -31.375 9.4375 C-29.065 8.7775 -26.755 8.1175 -24.375 7.4375 C-24.375 6.7775 -24.375 6.1175 -24.375 5.4375 C-22.01008245 4.06247797 -19.63571484 2.71305542 -17.25 1.375 C-16.58484375 0.98505859 -15.9196875 0.59511719 -15.234375 0.19335938 C-9.43478061 -3.01916105 -6.10640808 -2.82704078 0 0 Z " fill="#00BFED" transform="translate(519.375,182.5625)"/>
<path d="M0 0 C0.86625 0.474375 1.7325 0.94875 2.625 1.4375 C2.625 2.0975 2.625 2.7575 2.625 3.4375 C3.800625 3.6540625 3.800625 3.6540625 5 3.875 C7.625 4.4375 7.625 4.4375 9.625 5.4375 C9.625 6.0975 9.625 6.7575 9.625 7.4375 C10.8315625 7.7778125 10.8315625 7.7778125 12.0625 8.125 C15.73984502 9.47981132 18.90990651 11.18879625 22.30078125 13.12890625 C25.67971364 15.03133037 29.14461092 16.72894536 32.625 18.4375 C32.625 19.0975 32.625 19.7575 32.625 20.4375 C33.8315625 20.746875 33.8315625 20.746875 35.0625 21.0625 C38.96945864 22.57044895 41.9448239 24.60020419 45.3671875 26.97265625 C48.34087376 28.90195097 51.32093925 30.17211503 54.625 31.4375 C54.625 32.0975 54.625 32.7575 54.625 33.4375 C55.6975 33.705625 56.77 33.97375 57.875 34.25 C61.29346746 35.3325147 62.91118149 36.2664452 65.625 38.4375 C67.27297236 39.14912443 68.93665408 39.82781953 70.625 40.4375 C70.625 41.0975 70.625 41.7575 70.625 42.4375 C71.50728271 42.70771973 72.38956543 42.97793945 73.29858398 43.25634766 C76.42265329 44.36565021 79.00335301 45.65044424 81.84765625 47.3359375 C82.79833984 47.89796875 83.74902344 48.46 84.72851562 49.0390625 C86.19321289 49.91691406 86.19321289 49.91691406 87.6875 50.8125 C88.66783203 51.39 89.64816406 51.9675 90.65820312 52.5625 C100.27395753 58.28103419 100.27395753 58.28103419 103.625 61.4375 C103.625 62.0975 103.625 62.7575 103.625 63.4375 C104.615 63.7675 105.605 64.0975 106.625 64.4375 C108.01171875 65.99609375 108.01171875 65.99609375 109.3125 67.875 C109.74949219 68.49246094 110.18648437 69.10992187 110.63671875 69.74609375 C111.625 71.4375 111.625 71.4375 111.625 73.4375 C112.285 73.4375 112.945 73.4375 113.625 73.4375 C116.57419341 83.66165248 117.03986451 93.23933388 116.96557617 103.79418945 C116.96472805 105.50051865 116.96520865 107.20684893 116.96690369 108.91317749 C116.96775785 113.50533453 116.95022686 118.09725232 116.92918181 122.68935418 C116.91031753 127.50327326 116.90865694 132.31719895 116.90510559 137.13114929 C116.8958136 146.22913075 116.87123868 155.32700294 116.84105712 164.42493647 C116.80742409 174.79020062 116.7910048 185.15547023 116.77597082 195.52077544 C116.74468634 216.82641107 116.69198169 238.13194863 116.625 259.4375 C112.17 257.9525 112.17 257.9525 107.625 256.4375 C107.625 255.7775 107.625 255.1175 107.625 254.4375 C105.315 253.7775 103.005 253.1175 100.625 252.4375 C100.625 251.7775 100.625 251.1175 100.625 250.4375 C98.315 249.7775 96.005 249.1175 93.625 248.4375 C93.625 247.7775 93.625 247.1175 93.625 246.4375 C92.74956543 246.17179199 91.87413086 245.90608398 90.97216797 245.63232422 C87.7174845 244.4705138 85.03254034 243.08710121 82.0703125 241.3203125 C81.04292969 240.71316406 80.01554688 240.10601562 78.95703125 239.48046875 C77.89871094 238.84753906 76.84039063 238.21460938 75.75 237.5625 C69.13539947 233.62620398 62.56852959 229.76704792 55.625 226.4375 C55.625 225.7775 55.625 225.1175 55.625 224.4375 C53.315 223.7775 51.005 223.1175 48.625 222.4375 C48.625 221.7775 48.625 221.1175 48.625 220.4375 C47.696875 220.128125 46.76875 219.81875 45.8125 219.5 C43.75 218.8125 41.6875 218.125 39.625 217.4375 C39.625 216.7775 39.625 216.1175 39.625 215.4375 C38.655625 215.128125 37.68625 214.81875 36.6875 214.5 C33.625 213.4375 33.625 213.4375 32.625 212.4375 C32.5297178 209.45451786 32.49947825 206.49473655 32.51147461 203.51147461 C32.51132858 202.57498581 32.51118256 201.63849701 32.5110321 200.67362976 C32.51173163 197.56234461 32.51952585 194.45111851 32.52734375 191.33984375 C32.52920779 189.18892957 32.53063176 187.03801497 32.53163147 184.88710022 C32.53545775 179.21368242 32.54528898 173.54029005 32.55633545 167.86688232 C32.5665472 162.08248234 32.57112858 156.29807827 32.57617188 150.51367188 C32.58691115 139.15493672 32.60398889 127.79622047 32.625 116.4375 C30.315 115.7775 28.005 115.1175 25.625 114.4375 C25.625 113.7775 25.625 113.1175 25.625 112.4375 C24.635 112.210625 23.645 111.98375 22.625 111.75 C18.16190864 110.48393939 14.3081757 108.24030687 10.625 105.4375 C10.295 104.7775 9.965 104.1175 9.625 103.4375 C8.8 103.19 7.975 102.9425 7.125 102.6875 C3.10505225 101.25180438 0.24692423 99.15151363 -3.12890625 96.58203125 C-5.31055515 95.23860542 -5.31055515 95.23860542 -7.765625 95.5390625 C-10.99045077 96.6494067 -13.65829738 98.21418596 -16.5625 100 C-22.17178068 103.4375 -22.17178068 103.4375 -24.375 103.4375 C-24.705 104.0975 -25.035 104.7575 -25.375 105.4375 C-27.10975997 106.51849919 -28.88827309 107.53008562 -30.6875 108.5 C-31.65300781 109.02722656 -32.61851562 109.55445313 -33.61328125 110.09765625 C-35.92001681 111.21676558 -37.87450786 111.95640769 -40.375 112.4375 C-40.375 113.0975 -40.375 113.7575 -40.375 114.4375 C-43.84 115.4275 -43.84 115.4275 -47.375 116.4375 C-47.375 163.2975 -47.375 210.1575 -47.375 258.4375 C-51.40868564 257.09293812 -54.33959131 256.06620926 -57.8984375 254.0546875 C-58.69121094 253.60996094 -59.48398437 253.16523438 -60.30078125 252.70703125 C-61.10902344 252.24683594 -61.91726563 251.78664063 -62.75 251.3125 C-63.58144531 250.84457031 -64.41289062 250.37664062 -65.26953125 249.89453125 C-67.30734954 248.74679451 -69.34235569 247.59436718 -71.375 246.4375 C-71.375 245.7775 -71.375 245.1175 -71.375 244.4375 C-72.344375 244.23125 -73.31375 244.025 -74.3125 243.8125 C-78.48838861 242.63382176 -81.61175844 240.40060149 -85.140625 237.9375 C-87.66539255 236.24255115 -90.24161536 234.9537159 -92.98046875 233.6484375 C-98.57204272 230.82072472 -103.95303236 227.57493071 -109.375 224.4375 C-109.375 223.7775 -109.375 223.1175 -109.375 222.4375 C-110.10074219 222.32535156 -110.82648438 222.21320313 -111.57421875 222.09765625 C-114.50063993 221.40788613 -116.59787809 220.38239186 -119.1875 218.875 C-119.97769531 218.41996094 -120.76789063 217.96492187 -121.58203125 217.49609375 C-122.17371094 217.14675781 -122.76539063 216.79742187 -123.375 216.4375 C-123.375 215.7775 -123.375 215.1175 -123.375 214.4375 C-124.303125 214.14875 -125.23125 213.86 -126.1875 213.5625 C-129.375 212.4375 -129.375 212.4375 -132.375 210.4375 C-132.73690605 208.28837013 -132.73690605 208.28837013 -132.71798706 205.57022095 C-132.71803238 204.54145844 -132.7180777 203.51269592 -132.71812439 202.45275879 C-132.70270096 201.3193103 -132.68727753 200.18586182 -132.67138672 199.01806641 C-132.66689011 197.82760712 -132.66239349 196.63714783 -132.65776062 195.41061401 C-132.64191147 192.13708715 -132.61241783 188.86403672 -132.57604742 185.59068346 C-132.54031279 182.15837143 -132.51938215 178.72596351 -132.49612427 175.29354858 C-132.45452515 169.51799499 -132.40025897 163.74265992 -132.33886719 157.96728516 C-132.26834431 151.31582008 -132.21889376 144.66445195 -132.18075168 138.01272833 C-132.14335636 131.59791983 -132.08942167 125.1833446 -132.0286293 118.76871872 C-132.0032128 116.04896198 -131.9836689 113.32926036 -131.96908188 110.60942459 C-131.94516992 106.78961915 -131.90244296 102.97045511 -131.85498047 99.15087891 C-131.85170242 98.03767273 -131.84842438 96.92446655 -131.845047 95.77752686 C-131.68771969 85.92257442 -130.52430905 76.12932689 -124.3125 68.1875 C-123.27416016 66.81851563 -123.27416016 66.81851563 -122.21484375 65.421875 C-121.30412109 64.43960938 -121.30412109 64.43960938 -120.375 63.4375 C-119.715 63.4375 -119.055 63.4375 -118.375 63.4375 C-118.045 62.4475 -117.715 61.4575 -117.375 60.4375 C-114.1698982 57.41045941 -111.77142348 55.9399484 -107.375 55.4375 C-107.375 54.7775 -107.375 54.1175 -107.375 53.4375 C-104.0871022 51.59734502 -100.79408674 49.76654953 -97.5 47.9375 C-96.56285156 47.41285156 -95.62570312 46.88820312 -94.66015625 46.34765625 C-93.76425781 45.85136719 -92.86835938 45.35507813 -91.9453125 44.84375 C-91.11789551 44.38291016 -90.29047852 43.92207031 -89.43798828 43.44726562 C-87.375 42.4375 -87.375 42.4375 -85.375 42.4375 C-85.375 41.7775 -85.375 41.1175 -85.375 40.4375 C-83.43280718 39.46640359 -81.49044495 38.49568268 -79.546875 37.52734375 C-77.69031568 36.59572495 -75.8440365 35.64366707 -74 34.6875 C-71.375 33.4375 -71.375 33.4375 -69.375 33.4375 C-69.375 32.7775 -69.375 32.1175 -69.375 31.4375 C-68.3025 30.921875 -67.23 30.40625 -66.125 29.875 C-61.23597551 27.44801114 -56.58709832 24.64377696 -51.9140625 21.828125 C-49.375 20.4375 -49.375 20.4375 -47.375 20.4375 C-47.375 19.7775 -47.375 19.1175 -47.375 18.4375 C-45.43280718 17.46640359 -43.49044495 16.49568268 -41.546875 15.52734375 C-39.69031568 14.59572495 -37.8440365 13.64366707 -36 12.6875 C-33.375 11.4375 -33.375 11.4375 -31.375 11.4375 C-31.375 10.7775 -31.375 10.1175 -31.375 9.4375 C-29.065 8.7775 -26.755 8.1175 -24.375 7.4375 C-24.375 6.7775 -24.375 6.1175 -24.375 5.4375 C-22.01008245 4.06247797 -19.63571484 2.71305542 -17.25 1.375 C-16.58484375 0.98505859 -15.9196875 0.59511719 -15.234375 0.19335938 C-9.43478061 -3.01916105 -6.10640808 -2.82704078 0 0 Z " fill="#004BA9" transform="translate(519.375,182.5625)"/>
<path d="M0 0 C2.97 0.99 5.94 1.98 9 3 C9 3.66 9 4.32 9 5 C11.31 5.66 13.62 6.32 16 7 C16 7.66 16 8.32 16 9 C18.31 9.66 20.62 10.32 23 11 C23 11.66 23 12.32 23 13 C23.87543457 13.26570801 24.75086914 13.53141602 25.65283203 13.80517578 C28.9075155 14.9669862 31.59245966 16.35039879 34.5546875 18.1171875 C35.58207031 18.72433594 36.60945313 19.33148437 37.66796875 19.95703125 C38.72628906 20.58996094 39.78460938 21.22289062 40.875 21.875 C47.48960053 25.81129602 54.05647041 29.67045208 61 33 C61 33.66 61 34.32 61 35 C63.31 35.66 65.62 36.32 68 37 C68 37.66 68 38.32 68 39 C68.928125 39.309375 69.85625 39.61875 70.8125 39.9375 C72.875 40.625 74.9375 41.3125 77 42 C77 42.66 77 43.32 77 44 C77.969375 44.309375 78.93875 44.61875 79.9375 44.9375 C83 46 83 46 84 47 C84.0952822 49.98298214 84.12552175 52.94276345 84.11352539 55.92602539 C84.11367142 56.86251419 84.11381744 57.79900299 84.1139679 58.76387024 C84.11326837 61.87515539 84.10547415 64.98638149 84.09765625 68.09765625 C84.09579221 70.24857043 84.09436824 72.39948503 84.09336853 74.55039978 C84.08954225 80.22381758 84.07971102 85.89720995 84.06866455 91.57061768 C84.0584528 97.35501766 84.05387142 103.13942173 84.04882812 108.92382812 C84.03808885 120.28256328 84.02101111 131.64127953 84 143 C86.31 143.66 88.62 144.32 91 145 C91 145.66 91 146.32 91 147 C91.99 147.226875 92.98 147.45375 94 147.6875 C98.46309136 148.95356061 102.3168243 151.19719313 106 154 C106.33 154.66 106.66 155.32 107 156 C108.2375 156.37125 108.2375 156.37125 109.5 156.75 C113.51994775 158.18569562 116.37807577 160.28598637 119.75390625 162.85546875 C121.93555515 164.19889458 121.93555515 164.19889458 124.390625 163.8984375 C127.61545077 162.7880933 130.28329738 161.22331404 133.1875 159.4375 C138.79678068 156 138.79678068 156 141 156 C141.33 155.34 141.66 154.68 142 154 C143.73475997 152.91900081 145.51327309 151.90741438 147.3125 150.9375 C148.27800781 150.41027344 149.24351562 149.88304687 150.23828125 149.33984375 C152.54501681 148.22073442 154.49950786 147.48109231 157 147 C157 146.34 157 145.68 157 145 C160.465 144.01 160.465 144.01 164 143 C164 96.14 164 49.28 164 1 C168.23455283 2.41151761 171.32738927 3.6338405 175.0625 5.8515625 C177.29031481 7.17208177 179.54763451 8.43166112 181.8125 9.6875 C182.56144531 10.10386719 183.31039062 10.52023437 184.08203125 10.94921875 C185.37480846 11.65748162 186.68154357 12.34077178 188 13 C188 13.66 188 14.32 188 15 C189.15048828 15.29970703 189.15048828 15.29970703 190.32421875 15.60546875 C195.52109112 17.57707708 200.0687109 20.43815301 204.8125 23.3125 C214.05988613 28.87100371 223.3117809 34.24396517 233 39 C233 39.66 233 40.32 233 41 C235.31 41.66 237.62 42.32 240 43 C240 43.66 240 44.32 240 45 C240.928125 45.2475 241.85625 45.495 242.8125 45.75 C246.30322465 47.11891163 247.13668886 47.84844227 249 51 C249.36190605 53.36399078 249.36190605 53.36399078 249.34298706 56.03186035 C249.34303238 57.04654388 249.3430777 58.06122742 249.34312439 59.10665894 C249.32770096 60.21421539 249.31227753 61.32177185 249.29638672 62.46289062 C249.29189011 63.63413483 249.28739349 64.80537903 249.28276062 66.01211548 C249.26694741 69.223549 249.23748124 72.43449081 249.20104742 75.64574623 C249.16523437 79.01665164 249.14436079 82.3876559 249.12112427 85.75866699 C249.07957247 91.42811431 249.02532281 97.09733747 248.96386719 102.76660156 C248.89328783 109.29427517 248.84386591 115.82184944 248.80575168 122.34978724 C248.76835509 128.65034007 248.71442693 134.95065547 248.6536293 141.25102234 C248.62822425 143.92058234 248.60958688 146.5899323 248.59408188 149.25959778 C248.57016606 153.00734514 248.52744012 156.75443933 248.47998047 160.50195312 C248.4750634 162.13899704 248.4750634 162.13899704 248.470047 163.80911255 C248.31061057 173.60986128 247.11178035 183.35615372 240.9375 191.25 C240.24527344 192.16265625 239.55304688 193.0753125 238.83984375 194.015625 C237.92912109 194.99789062 237.92912109 194.99789062 237 196 C236.34 196 235.68 196 235 196 C234.67 196.99 234.34 197.98 234 199 C230.7948982 202.02704059 228.39642348 203.4975516 224 204 C224 204.66 224 205.32 224 206 C220.7121022 207.84015498 217.41908674 209.67095047 214.125 211.5 C213.18785156 212.02464844 212.25070312 212.54929687 211.28515625 213.08984375 C210.38925781 213.58613281 209.49335937 214.08242188 208.5703125 214.59375 C207.32918701 215.28500977 207.32918701 215.28500977 206.06298828 215.99023438 C204 217 204 217 202 217 C202 217.66 202 218.32 202 219 C200.05780718 219.97109641 198.11544495 220.94181732 196.171875 221.91015625 C194.31531568 222.84177505 192.4690365 223.79383293 190.625 224.75 C188 226 188 226 186 226 C186 226.66 186 227.32 186 228 C184.9275 228.515625 183.855 229.03125 182.75 229.5625 C177.86097551 231.98948886 173.21209832 234.79372304 168.5390625 237.609375 C166 239 166 239 164 239 C164 239.66 164 240.32 164 241 C162.05780718 241.97109641 160.11544495 242.94181732 158.171875 243.91015625 C156.31531568 244.84177505 154.4690365 245.79383293 152.625 246.75 C150 248 150 248 148 248 C148 248.66 148 249.32 148 250 C144.535 250.99 144.535 250.99 141 252 C141 252.66 141 253.32 141 254 C138.63508245 255.37502203 136.26071484 256.72444458 133.875 258.0625 C132.87726563 258.64741211 132.87726563 258.64741211 131.859375 259.24414062 C128.50492213 261.10224442 126.62768652 262.02988983 122.71875 261.84375 C119.60549397 260.87756709 116.85603672 259.56402011 114 258 C114 257.34 114 256.68 114 256 C113.21625 255.855625 112.4325 255.71125 111.625 255.5625 C109 255 109 255 107 254 C107 253.34 107 252.68 107 252 C106.195625 251.773125 105.39125 251.54625 104.5625 251.3125 C100.88515498 249.95768868 97.71509349 248.24870375 94.32421875 246.30859375 C90.94528636 244.40616963 87.48038908 242.70855464 84 241 C84 240.34 84 239.68 84 239 C83.195625 238.79375 82.39125 238.5875 81.5625 238.375 C77.65554136 236.86705105 74.6801761 234.83729581 71.2578125 232.46484375 C68.28412624 230.53554903 65.30406075 229.26538497 62 228 C62 227.34 62 226.68 62 226 C60.39125 225.5978125 60.39125 225.5978125 58.75 225.1875 C55.33153254 224.1049853 53.71381851 223.1710548 51 221 C49.35202764 220.28837557 47.68834592 219.60968047 46 219 C46 218.34 46 217.68 46 217 C45.11771729 216.72978027 44.23543457 216.45956055 43.32641602 216.18115234 C40.20234671 215.07184979 37.62164699 213.78705576 34.77734375 212.1015625 C33.82666016 211.53953125 32.87597656 210.9775 31.89648438 210.3984375 C30.92001953 209.81320312 29.94355469 209.22796875 28.9375 208.625 C27.95716797 208.0475 26.97683594 207.47 25.96679688 206.875 C16.35104247 201.15646581 16.35104247 201.15646581 13 198 C13 197.34 13 196.68 13 196 C12.01 195.67 11.02 195.34 10 195 C8.28125 193.13671875 8.28125 193.13671875 6.5 190.6875 C5.61828125 189.51767578 5.61828125 189.51767578 4.71875 188.32421875 C-0.5876749 178.06111059 -0.4195803 167.00804473 -0.34057617 155.75683594 C-0.33972826 154.05065425 -0.34020823 152.34447146 -0.34190369 150.63829041 C-0.34275868 146.04194234 -0.32521393 141.44583277 -0.30418181 136.84953976 C-0.28533167 132.03294547 -0.28365804 127.21634473 -0.28010559 122.39971924 C-0.2708095 113.29462139 -0.24622892 104.18963257 -0.21605712 95.08458257 C-0.18243699 84.71208657 -0.16600802 74.33958516 -0.15097082 63.96704817 C-0.11967702 42.6446381 -0.06696425 21.32232594 0 0 Z " fill="#004BA9" transform="translate(388,582)"/>
<path d="M0 0 C0.33 0.66 0.66 1.32 1 2 C1.66 2 2.32 2 3 2 C3.33 3.98 3.66 5.96 4 8 C3.67 7.34 3.34 6.68 3 6 C2.01 6 1.02 6 0 6 C0 4.02 0 2.04 0 0 Z " fill="#00718C" transform="translate(794,349)"/>
<path d="M0 0 C2 1 2 1 2 1 Z " fill="#000000" transform="translate(511,278)"/>
<path d="" fill="#000000" transform="translate(0,0)"/>
<path d="" fill="#000000" transform="translate(0,0)"/>
<path d="" fill="#000000" transform="translate(0,0)"/>
<path d="" fill="#000000" transform="translate(0,0)"/>
<path d="" fill="#000000" transform="translate(0,0)"/>
<path d="" fill="#000000" transform="translate(0,0)"/>
<path d="" fill="#000000" transform="translate(0,0)"/>
<path d="" fill="#000000" transform="translate(0,0)"/>
<path d="" fill="#000000" transform="translate(0,0)"/>
<path d="" fill="#000000" transform="translate(0,0)"/>
<path d="" fill="#000000" transform="translate(0,0)"/>
<path d="" fill="#000000" transform="translate(0,0)"/>
<path d="" fill="#000000" transform="translate(0,0)"/>
<path d="" fill="#000000" transform="translate(0,0)"/>
<path d="" fill="#000000" transform="translate(0,0)"/>
<path d="" fill="#000000" transform="translate(0,0)"/>
<path d="" fill="#000000" transform="translate(0,0)"/>
<path d="" fill="#000000" transform="translate(0,0)"/>
<path d="" fill="#000000" transform="translate(0,0)"/>
<path d="" fill="#000000" transform="translate(0,0)"/>
<path d="" fill="#000000" transform="translate(0,0)"/>
<path d="" fill="#000000" transform="translate(0,0)"/>
<path d="" fill="#000000" transform="translate(0,0)"/>
<path d="" fill="#000000" transform="translate(0,0)"/>
<path d="" fill="#000000" transform="translate(0,0)"/>
<path d="" fill="#000000" transform="translate(0,0)"/>
<path d="" fill="#000000" transform="translate(0,0)"/>
<path d="" fill="#000000" transform="translate(0,0)"/>
<path d="" fill="#000000" transform="translate(0,0)"/>
<path d="" fill="#000000" transform="translate(0,0)"/>
<path d="" fill="#000000" transform="translate(0,0)"/>
<path d="" fill="#000000" transform="translate(0,0)"/>
<path d="" fill="#000000" transform="translate(0,0)"/>
<path d="" fill="#000000" transform="translate(0,0)"/>
<path d="" fill="#000000" transform="translate(0,0)"/>
<path d="" fill="#000000" transform="translate(0,0)"/>
<path d="" fill="#000000" transform="translate(0,0)"/>
<path d="" fill="#000000" transform="translate(0,0)"/>
<path d="" fill="#000000" transform="translate(0,0)"/>
<path d="" fill="#000000" transform="translate(0,0)"/>
<path d="" fill="#000000" transform="translate(0,0)"/>
<path d="" fill="#000000" transform="translate(0,0)"/>
<path d="" fill="#000000" transform="translate(0,0)"/>
<path d="" fill="#000000" transform="translate(0,0)"/>
<path d="" fill="#000000" transform="translate(0,0)"/>
<path d="" fill="#000000" transform="translate(0,0)"/>
<path d="" fill="#000000" transform="translate(0,0)"/>
<path d="" fill="#000000" transform="translate(0,0)"/>
<path d="" fill="#000000" transform="translate(0,0)"/>
<path d="" fill="#000000" transform="translate(0,0)"/>
<path d="" fill="#000000" transform="translate(0,0)"/>
<path d="" fill="#000000" transform="translate(0,0)"/>
<path d="" fill="#000000" transform="translate(0,0)"/>
<path d="" fill="#000000" transform="translate(0,0)"/>
<path d="" fill="#000000" transform="translate(0,0)"/>
<path d="" fill="#000000" transform="translate(0,0)"/>
<path d="" fill="#000000" transform="translate(0,0)"/>
<path d="" fill="#000000" transform="translate(0,0)"/>
<path d="" fill="#000000" transform="translate(0,0)"/>
<path d="" fill="#000000" transform="translate(0,0)"/>
<path d="" fill="#000000" transform="translate(0,0)"/>
<path d="" fill="#000000" transform="translate(0,0)"/>
<path d="" fill="#000000" transform="translate(0,0)"/>
<path d="" fill="#000000" transform="translate(0,0)"/>
<path d="" fill="#000000" transform="translate(0,0)"/>
<path d="" fill="#000000" transform="translate(0,0)"/>
<path d="" fill="#000000" transform="translate(0,0)"/>
<path d="" fill="#000000" transform="translate(0,0)"/>
<path d="" fill="#000000" transform="translate(0,0)"/>
<path d="" fill="#000000" transform="translate(0,0)"/>
<path d="" fill="#000000" transform="translate(0,0)"/>
<path d="" fill="#000000" transform="translate(0,0)"/>
<path d="" fill="#000000" transform="translate(0,0)"/>
<path d="" fill="#000000" transform="translate(0,0)"/>
<path d="" fill="#000000" transform="translate(0,0)"/>
<path d="" fill="#000000" transform="translate(0,0)"/>
<path d="" fill="#000000" transform="translate(0,0)"/>
<path d="" fill="#000000" transform="translate(0,0)"/>
<path d="" fill="#000000" transform="translate(0,0)"/>
<path d="" fill="#000000" transform="translate(0,0)"/>
<path d="" fill="#000000" transform="translate(0,0)"/>
<path d="" fill="#000000" transform="translate(0,0)"/>
<path d="" fill="#000000" transform="translate(0,0)"/>
<path d="" fill="#000000" transform="translate(0,0)"/>
<path d="" fill="#000000" transform="translate(0,0)"/>
<path d="" fill="#000000" transform="translate(0,0)"/>
<path d="" fill="#000000" transform="translate(0,0)"/>
<path d="" fill="#000000" transform="translate(0,0)"/>
<path d="" fill="#000000" transform="translate(0,0)"/>
<path d="" fill="#000000" transform="translate(0,0)"/>
<path d="" fill="#000000" transform="translate(0,0)"/>
<path d="" fill="#000000" transform="translate(0,0)"/>
<path d="" fill="#000000" transform="translate(0,0)"/>
<path d="" fill="#000000" transform="translate(0,0)"/>
<path d="" fill="#000000" transform="translate(0,0)"/>
<path d="" fill="#000000" transform="translate(0,0)"/>
<path d="" fill="#000000" transform="translate(0,0)"/>
<path d="" fill="#000000" transform="translate(0,0)"/>
<path d="" fill="#000000" transform="translate(0,0)"/>
<path d="" fill="#000000" transform="translate(0,0)"/>
<path d="" fill="#000000" transform="translate(0,0)"/>
<path d="" fill="#000000" transform="translate(0,0)"/>
<path d="" fill="#000000" transform="translate(0,0)"/>
<path d="" fill="#000000" transform="translate(0,0)"/>
<path d="" fill="#000000" transform="translate(0,0)"/>
<path d="" fill="#000000" transform="translate(0,0)"/>
<path d="" fill="#000000" transform="translate(0,0)"/>
<path d="" fill="#000000" transform="translate(0,0)"/>
<path d="" fill="#000000" transform="translate(0,0)"/>
<path d="" fill="#000000" transform="translate(0,0)"/>
<path d="" fill="#000000" transform="translate(0,0)"/>
<path d="" fill="#000000" transform="translate(0,0)"/>
<path d="" fill="#000000" transform="translate(0,0)"/>
<path d="" fill="#000000" transform="translate(0,0)"/>
<path d="" fill="#000000" transform="translate(0,0)"/>
<path d="" fill="#000000" transform="translate(0,0)"/>
<path d="" fill="#000000" transform="translate(0,0)"/>
<path d="" fill="#000000" transform="translate(0,0)"/>
<path d="" fill="#000000" transform="translate(0,0)"/>
<path d="" fill="#000000" transform="translate(0,0)"/>
<path d="" fill="#000000" transform="translate(0,0)"/>
<path d="" fill="#000000" transform="translate(0,0)"/>
<path d="" fill="#000000" transform="translate(0,0)"/>
<path d="" fill="#000000" transform="translate(0,0)"/>
<path d="" fill="#000000" transform="translate(0,0)"/>
<path d="" fill="#000000" transform="translate(0,0)"/>
<path d="" fill="#000000" transform="translate(0,0)"/>
<path d="" fill="#000000" transform="translate(0,0)"/>
<path d="" fill="#000000" transform="translate(0,0)"/>
<path d="" fill="#000000" transform="translate(0,0)"/>
<path d="" fill="#000000" transform="translate(0,0)"/>
<path d="" fill="#000000" transform="translate(0,0)"/>
<path d="" fill="#000000" transform="translate(0,0)"/>
<path d="" fill="#000000" transform="translate(0,0)"/>
<path d="" fill="#000000" transform="translate(0,0)"/>
<path d="" fill="#000000" transform="translate(0,0)"/>
<path d="" fill="#000000" transform="translate(0,0)"/>
<path d="" fill="#000000" transform="translate(0,0)"/>
<path d="" fill="#000000" transform="translate(0,0)"/>
<path d="" fill="#000000" transform="translate(0,0)"/>
<path d="" fill="#000000" transform="translate(0,0)"/>
<path d="" fill="#000000" transform="translate(0,0)"/>
<path d="" fill="#000000" transform="translate(0,0)"/>
<path d="" fill="#000000" transform="translate(0,0)"/>
<path d="" fill="#000000" transform="translate(0,0)"/>
<path d="" fill="#000000" transform="translate(0,0)"/>
<path d="" fill="#000000" transform="translate(0,0)"/>
<path d="" fill="#000000" transform="translate(0,0)"/>
<path d="" fill="#000000" transform="translate(0,0)"/>
<path d="" fill="#000000" transform="translate(0,0)"/>
<path d="" fill="#000000" transform="translate(0,0)"/>
<path d="" fill="#000000" transform="translate(0,0)"/>
<path d="" fill="#000000" transform="translate(0,0)"/>
<path d="" fill="#000000" transform="translate(0,0)"/>
<path d="" fill="#000000" transform="translate(0,0)"/>
<path d="" fill="#000000" transform="translate(0,0)"/>
<path d="" fill="#000000" transform="translate(0,0)"/>
<path d="" fill="#000000" transform="translate(0,0)"/>
<path d="" fill="#000000" transform="translate(0,0)"/>
<path d="" fill="#000000" transform="translate(0,0)"/>
<path d="" fill="#000000" transform="translate(0,0)"/>
<path d="" fill="#000000" transform="translate(0,0)"/>
<path d="" fill="#000000" transform="translate(0,0)"/>
<path d="" fill="#000000" transform="translate(0,0)"/>
<path d="" fill="#000000" transform="translate(0,0)"/>
<path d="" fill="#000000" transform="translate(0,0)"/>
<path d="" fill="#000000" transform="translate(0,0)"/>
<path d="" fill="#000000" transform="translate(0,0)"/>
<path d="" fill="#000000" transform="translate(0,0)"/>
<path d="" fill="#000000" transform="translate(0,0)"/>
<path d="" fill="#000000" transform="translate(0,0)"/>
<path d="" fill="#000000" transform="translate(0,0)"/>
<path d="" fill="#000000" transform="translate(0,0)"/>
<path d="" fill="#000000" transform="translate(0,0)"/>
<path d="" fill="#000000" transform="translate(0,0)"/>
<path d="" fill="#000000" transform="translate(0,0)"/>
<path d="" fill="#000000" transform="translate(0,0)"/>
<path d="" fill="#000000" transform="translate(0,0)"/>
<path d="" fill="#000000" transform="translate(0,0)"/>
<path d="" fill="#000000" transform="translate(0,0)"/>
<path d="" fill="#000000" transform="translate(0,0)"/>
<path d="" fill="#000000" transform="translate(0,0)"/>
<path d="" fill="#000000" transform="translate(0,0)"/>
<path d="" fill="#000000" transform="translate(0,0)"/>
<path d="" fill="#000000" transform="translate(0,0)"/>
<path d="" fill="#000000" transform="translate(0,0)"/>
<path d="" fill="#000000" transform="translate(0,0)"/>
<path d="" fill="#000000" transform="translate(0,0)"/>
<path d="" fill="#000000" transform="translate(0,0)"/>
<path d="" fill="#000000" transform="translate(0,0)"/>
<path d="" fill="#000000" transform="translate(0,0)"/>
<path d="" fill="#000000" transform="translate(0,0)"/>
<path d="" fill="#000000" transform="translate(0,0)"/>
<path d="" fill="#000000" transform="translate(0,0)"/>
<path d="" fill="#000000" transform="translate(0,0)"/>
<path d="" fill="#000000" transform="translate(0,0)"/>
<path d="" fill="#000000" transform="translate(0,0)"/>
<path d="" fill="#000000" transform="translate(0,0)"/>
<path d="" fill="#000000" transform="translate(0,0)"/>
<path d="" fill="#000000" transform="translate(0,0)"/>
<path d="" fill="#000000" transform="translate(0,0)"/>
<path d="" fill="#000000" transform="translate(0,0)"/>
<path d="" fill="#000000" transform="translate(0,0)"/>
<path d="" fill="#000000" transform="translate(0,0)"/>
<path d="" fill="#000000" transform="translate(0,0)"/>
<path d="" fill="#000000" transform="translate(0,0)"/>
<path d="" fill="#000000" transform="translate(0,0)"/>
<path d="" fill="#000000" transform="translate(0,0)"/>
<path d="" fill="#000000" transform="translate(0,0)"/>
<path d="" fill="#000000" transform="translate(0,0)"/>
<path d="" fill="#000000" transform="translate(0,0)"/>
<path d="" fill="#000000" transform="translate(0,0)"/>
<path d="" fill="#000000" transform="translate(0,0)"/>
<path d="" fill="#000000" transform="translate(0,0)"/>
<path d="" fill="#000000" transform="translate(0,0)"/>
<path d="" fill="#000000" transform="translate(0,0)"/>
<path d="" fill="#000000" transform="translate(0,0)"/>
<path d="" fill="#000000" transform="translate(0,0)"/>
<path d="" fill="#000000" transform="translate(0,0)"/>
<path d="" fill="#000000" transform="translate(0,0)"/>
<path d="" fill="#000000" transform="translate(0,0)"/>
<path d="" fill="#000000" transform="translate(0,0)"/>
<path d="" fill="#000000" transform="translate(0,0)"/>
<path d="" fill="#000000" transform="translate(0,0)"/>
<path d="" fill="#000000" transform="translate(0,0)"/>
<path d="" fill="#000000" transform="translate(0,0)"/>
<path d="" fill="#000000" transform="translate(0,0)"/>
<path d="" fill="#000000" transform="translate(0,0)"/>
<path d="" fill="#000000" transform="translate(0,0)"/>
<path d="" fill="#000000" transform="translate(0,0)"/>
<path d="" fill="#000000" transform="translate(0,0)"/>
<path d="" fill="#000000" transform="translate(0,0)"/>
<path d="" fill="#000000" transform="translate(0,0)"/>
<path d="" fill="#000000" transform="translate(0,0)"/>
<path d="" fill="#000000" transform="translate(0,0)"/>
<path d="" fill="#000000" transform="translate(0,0)"/>
<path d="" fill="#000000" transform="translate(0,0)"/>
<path d="" fill="#000000" transform="translate(0,0)"/>
<path d="" fill="#000000" transform="translate(0,0)"/>
<path d="" fill="#000000" transform="translate(0,0)"/>
<path d="" fill="#000000" transform="translate(0,0)"/>
<path d="" fill="#000000" transform="translate(0,0)"/>
<path d="" fill="#000000" transform="translate(0,0)"/>
<path d="" fill="#000000" transform="translate(0,0)"/>
<path d="" fill="#000000" transform="translate(0,0)"/>
<path d="" fill="#000000" transform="translate(0,0)"/>
<path d="" fill="#000000" transform="translate(0,0)"/>
<path d="" fill="#000000" transform="translate(0,0)"/>
<path d="" fill="#000000" transform="translate(0,0)"/>
<path d="" fill="#000000" transform="translate(0,0)"/>
<path d="" fill="#000000" transform="translate(0,0)"/>
<path d="" fill="#000000" transform="translate(0,0)"/>
<path d="" fill="#000000" transform="translate(0,0)"/>
<path d="" fill="#000000" transform="translate(0,0)"/>
<path d="" fill="#000000" transform="translate(0,0)"/>
<path d="" fill="#000000" transform="translate(0,0)"/>
<path d="" fill="#000000" transform="translate(0,0)"/>
<path d="" fill="#000000" transform="translate(0,0)"/>
<path d="" fill="#000000" transform="translate(0,0)"/>
<path d="" fill="#000000" transform="translate(0,0)"/>
<path d="" fill="#000000" transform="translate(0,0)"/>
<path d="" fill="#000000" transform="translate(0,0)"/>
<path d="" fill="#000000" transform="translate(0,0)"/>
<path d="" fill="#000000" transform="translate(0,0)"/>
</svg>
